<svg width="20" height="21" viewBox="0 0 20 21" fill="none" xmlns="http://www.w3.org/2000/svg">
<path d="M19 11V14C19 15.0609 18.5786 16.0783 17.8284 16.8284C17.0783 17.5786 16.0609 18 15 18H5C3.93913 18 2.92172 17.5786 2.17157 16.8284C1.42143 16.0783 1 15.0609 1 14V11.6C1 11.4409 1.06321 11.2883 1.17574 11.1757C1.28826 11.0632 1.44087 11 1.6 11H19ZM19 11V5C19 3.93913 18.5786 2.92172 17.8284 2.17157C17.0783 1.42143 16.0609 1 15 1H10M14 18L15 20M6 18L5 20" stroke="#B2B2B2" stroke-width="1.5" stroke-linecap="round" stroke-linejoin="round"/>
<path d="M13.4023 6H6.60234C6.27134 6 6.00634 5.732 6.04234 5.402C6.18834 4.075 6.86534 1 10.0023 1C13.1393 1 13.8163 4.075 13.9623 5.402C13.9983 5.732 13.7333 6 13.4023 6Z" stroke="#B2B2B2" stroke-width="1.5" stroke-linecap="round" stroke-linejoin="round"/>
</svg>
