<svg width="20" height="21" viewBox="0 0 20 21" fill="none" xmlns="http://www.w3.org/2000/svg">
<path d="M18.8256 8.92397L11.3256 1.42397C10.974 1.07247 10.4972 0.875 10 0.875C9.50283 0.875 9.026 1.07247 8.67438 1.42397L1.17438 8.92397C0.999566 9.09772 0.860985 9.30445 0.766679 9.53217C0.672372 9.75989 0.624218 10.0041 0.62501 10.2505V19.2505C0.62501 19.5489 0.743536 19.8351 0.954515 20.046C1.16549 20.257 1.45164 20.3755 1.75001 20.3755H7.75001C8.04838 20.3755 8.33453 20.257 8.5455 20.046C8.75648 19.8351 8.87501 19.5489 8.87501 19.2505V14.3755H11.125V19.2505C11.125 19.5489 11.2435 19.8351 11.4545 20.046C11.6655 20.257 11.9516 20.3755 12.25 20.3755H18.25C18.5484 20.3755 18.8345 20.257 19.0455 20.046C19.2565 19.8351 19.375 19.5489 19.375 19.2505V10.2505C19.3758 10.0041 19.3276 9.75989 19.2333 9.53217C19.139 9.30445 19.0005 9.09772 18.8256 8.92397ZM17.125 18.1255H13.375V13.2505C13.375 12.9522 13.2565 12.666 13.0455 12.455C12.8345 12.2441 12.5484 12.1255 12.25 12.1255H7.75001C7.45164 12.1255 7.16549 12.2441 6.95451 12.455C6.74354 12.666 6.62501 12.9522 6.62501 13.2505V18.1255H2.87501V10.4052L10 3.28022L17.125 10.4052V18.1255Z" fill="#B2B2B2"/>
</svg>
