<svg width="16" height="18" viewBox="0 0 16 18" fill="none" xmlns="http://www.w3.org/2000/svg">
<path d="M1.33594 16.5003H14.6693M2.72427 9.98945C2.36895 10.3456 2.16936 10.8281 2.16927 11.3311V14.0003H4.8551C5.35844 14.0003 5.84094 13.8003 6.19677 13.4436L14.1134 5.52278C14.4686 5.16661 14.6681 4.68413 14.6681 4.18111C14.6681 3.6781 14.4686 3.19562 14.1134 2.83945L13.3318 2.05611C13.1555 1.87974 12.9462 1.73984 12.7158 1.64442C12.4854 1.549 12.2385 1.49992 11.9891 1.5C11.7397 1.50008 11.4928 1.54931 11.2625 1.64487C11.0322 1.74044 10.8229 1.88046 10.6468 2.05695L2.72427 9.98945Z" stroke="white" stroke-width="1.5" stroke-linecap="round" stroke-linejoin="round"/>
</svg>
