<svg width="20" height="20" viewBox="0 0 20 20" fill="none" xmlns="http://www.w3.org/2000/svg">
<path fill-rule="evenodd" clip-rule="evenodd" d="M0 3C0 2.20435 0.316071 1.44129 0.87868 0.87868C1.44129 0.316071 2.20435 0 3 0H17C17.7956 0 18.5587 0.316071 19.1213 0.87868C19.6839 1.44129 20 2.20435 20 3V9.5C19.9999 9.58435 19.9892 9.66835 19.968 9.75C19.9892 9.83165 19.9999 9.91565 20 10V17C20 17.7956 19.6839 18.5587 19.1213 19.1213C18.5587 19.6839 17.7956 20 17 20H3C2.20435 20 1.44129 19.6839 0.87868 19.1213C0.316071 18.5587 0 17.7956 0 17V14C8.02958e-05 13.9157 0.0108324 13.8316 0.0320001 13.75C0.0108324 13.6684 8.02958e-05 13.5843 0 13.5V3ZM2.994 12.83C2.646 12.8367 2.31467 12.852 2 12.876V3C2 2.73478 2.10536 2.48043 2.29289 2.29289C2.48043 2.10536 2.73478 2 3 2H17C17.2652 2 17.5196 2.10536 17.7071 2.29289C17.8946 2.48043 18 2.73478 18 3V9.016C13.703 9.155 10.6 10.19 8.42 11.639C9.246 11.932 10.17 12.349 11.076 12.895C12.475 13.735 13.897 14.915 14.854 16.478C14.9226 16.59 14.9684 16.7144 14.9888 16.8442C15.0093 16.9739 15.004 17.1064 14.9733 17.2341C14.9425 17.3617 14.887 17.4821 14.8097 17.5883C14.7324 17.6945 14.635 17.7845 14.523 17.853C14.411 17.9216 14.2866 17.9674 14.1568 17.9878C14.0271 18.0083 13.8946 18.003 13.7669 17.9723C13.6393 17.9415 13.5189 17.886 13.4127 17.8087C13.3065 17.7314 13.2165 17.634 13.148 17.522C12.412 16.319 11.27 15.344 10.046 14.609C8.824 13.875 7.581 13.417 6.719 13.217C5.50466 12.94 4.26136 12.8104 3.016 12.831H2.994V12.83ZM4.978 4.488C5.4236 4.17374 5.95474 4.00344 6.5 4C6.91 4 7.503 4.115 8.022 4.488C8.592 4.898 9 5.574 9 6.5C9 7.426 8.592 8.101 8.022 8.511C7.57652 8.82562 7.04537 8.99627 6.5 9C6.09 9 5.497 8.885 4.978 8.511C4.408 8.101 4 7.427 4 6.5C4 5.574 4.408 4.899 4.978 4.488Z" fill="white"/>
</svg>
