<svg width="12" height="14" viewBox="0 0 12 14" fill="none" xmlns="http://www.w3.org/2000/svg">
<path d="M6 14L1.782 9.0255C1.72339 8.95081 1.66539 8.87564 1.608 8.8C0.887857 7.8507 0.498663 6.69155 0.500003 5.5C0.500003 4.04131 1.07947 2.64236 2.11092 1.61091C3.14237 0.579463 4.54131 0 6 0C7.45869 0 8.85764 0.579463 9.88909 1.61091C10.9205 2.64236 11.5 4.04131 11.5 5.5C11.5012 6.69098 11.1122 7.84954 10.3925 8.7985L10.392 8.8C10.392 8.8 10.242 8.997 10.2195 9.0235L6 14ZM2.4065 8.1975C2.4065 8.1975 2.523 8.3515 2.5495 8.3845L6 12.454L9.455 8.379C9.477 8.3515 9.594 8.1965 9.5945 8.196C10.1831 7.42057 10.5012 6.47352 10.5 5.5C10.5 4.30653 10.0259 3.16193 9.18198 2.31802C8.33807 1.47411 7.19348 1 6 1C4.80653 1 3.66194 1.47411 2.81802 2.31802C1.97411 3.16193 1.5 4.30653 1.5 5.5C1.49877 6.47415 1.81723 7.42179 2.4065 8.1975Z" fill="white"/>
</svg>
