<svg width="16" height="16" viewBox="0 0 16 16" fill="none" xmlns="http://www.w3.org/2000/svg">
<path d="M8.0026 4.66927C8.37079 4.66927 8.66927 4.37079 8.66927 4.0026C8.66927 3.63441 8.37079 3.33594 8.0026 3.33594C7.63441 3.33594 7.33594 3.63441 7.33594 4.0026C7.33594 4.37079 7.63441 4.66927 8.0026 4.66927Z" fill="white"/>
<path d="M4 11.3359H12V12.6693H4V11.3359ZM6.66667 7.88927L8.528 9.75194L11.1493 7.1286L12 8.0026V5.33594H9.33333L10.2067 6.18594L8.52733 7.86527L6.66667 6.0026L4 8.66927L4.94267 9.61194L6.66667 7.88927Z" fill="white"/>
<path d="M12.6693 1.99744H10.4706C10.4046 1.89928 10.3334 1.8047 10.2573 1.71411L10.2506 1.70611C9.76062 1.13582 9.07157 0.773893 8.32394 0.694108C8.11159 0.654047 7.89362 0.654047 7.68127 0.694108C6.93364 0.773893 6.24459 1.13582 5.7546 1.70611L5.74794 1.71411C5.67187 1.80448 5.60066 1.89884 5.5346 1.99677V1.99744H3.33594C2.80567 1.99797 2.29727 2.20885 1.92231 2.58381C1.54735 2.95877 1.33647 3.46717 1.33594 3.99744V13.3308C1.33647 13.861 1.54735 14.3694 1.92231 14.7444C2.29727 15.1194 2.80567 15.3302 3.33594 15.3308H12.6693C13.1995 15.3302 13.7079 15.1194 14.0829 14.7444C14.4579 14.3694 14.6687 13.861 14.6693 13.3308V3.99744C14.6687 3.46717 14.4579 2.95877 14.0829 2.58381C13.7079 2.20885 13.1995 1.99797 12.6693 1.99744ZM13.3359 13.3308C13.3359 13.5076 13.2657 13.6772 13.1407 13.8022C13.0157 13.9272 12.8461 13.9974 12.6693 13.9974H3.33594C3.15913 13.9974 2.98956 13.9272 2.86453 13.8022C2.73951 13.6772 2.66927 13.5076 2.66927 13.3308V3.99744C2.66927 3.82063 2.73951 3.65106 2.86453 3.52604C2.98956 3.40101 3.15913 3.33077 3.33594 3.33077H6.36927C6.44578 2.95401 6.65018 2.61528 6.94785 2.37198C7.24552 2.12868 7.61815 1.99577 8.0026 1.99577C8.38706 1.99577 8.75969 2.12868 9.05736 2.37198C9.35503 2.61528 9.55943 2.95401 9.63594 3.33077H12.6693C12.8461 3.33077 13.0157 3.40101 13.1407 3.52604C13.2657 3.65106 13.3359 3.82063 13.3359 3.99744V13.3308Z" fill="white"/>
</svg>
