<svg width="16" height="16" viewBox="0 0 16 16" fill="none" xmlns="http://www.w3.org/2000/svg">
<g clip-path="url(#clip0_5618_11820)">
<path d="M8.18636 7.24621C7.68648 7.24095 7.19933 7.08791 6.78625 6.80637C6.37317 6.52482 6.05262 6.12736 5.86496 5.66401C5.6773 5.20067 5.63092 4.69216 5.73166 4.20251C5.8324 3.71286 6.07576 3.26396 6.43109 2.91233C6.78642 2.5607 7.23784 2.32206 7.72852 2.22645C8.2192 2.13084 8.72719 2.18255 9.18855 2.37505C9.6499 2.56755 10.044 2.89224 10.3212 3.30825C10.5984 3.72426 10.7463 4.21298 10.7464 4.71288C10.7417 5.38794 10.4696 6.03361 9.98975 6.50845C9.50991 6.98329 8.86142 7.24858 8.18636 7.24621ZM8.18636 3.06844C7.8623 3.07369 7.54703 3.17459 7.28013 3.35845C7.01323 3.5423 6.80662 3.80093 6.68623 4.10184C6.56585 4.40275 6.53706 4.73252 6.60349 5.04973C6.66992 5.36695 6.82861 5.65746 7.05961 5.88478C7.29062 6.1121 7.58365 6.26609 7.90189 6.32741C8.22013 6.38873 8.5494 6.35464 8.84833 6.22943C9.14726 6.10422 9.40253 5.89347 9.58207 5.62365C9.76161 5.35383 9.85742 5.03698 9.85747 4.71288C9.85277 4.27358 9.67436 3.854 9.36122 3.54585C9.04808 3.23771 8.62568 3.06606 8.18636 3.06844Z" fill="#D9D9D9"/>
<path d="M8.18615 7.24621C7.68627 7.24095 7.19912 7.08791 6.78604 6.80637C6.37296 6.52482 6.05241 6.12736 5.86475 5.66401C5.67709 5.20067 5.63071 4.69216 5.73145 4.20251C5.83219 3.71286 6.07555 3.26396 6.43088 2.91233C6.78621 2.5607 7.23763 2.32206 7.72831 2.22645C8.21899 2.13084 8.72698 2.18255 9.18834 2.37505C9.64969 2.56755 10.0438 2.89224 10.321 3.30825C10.5982 3.72426 10.7461 4.21298 10.7461 4.71288C10.7414 5.38794 10.4694 6.03361 9.98953 6.50845C9.5097 6.98329 8.86121 7.24858 8.18615 7.24621ZM8.18615 3.06844C7.86209 3.07369 7.54682 3.17459 7.27992 3.35845C7.01302 3.5423 6.80641 3.80093 6.68602 4.10184C6.56564 4.40275 6.53685 4.73252 6.60328 5.04973C6.66971 5.36695 6.8284 5.65746 7.0594 5.88478C7.29041 6.1121 7.58344 6.26609 7.90168 6.32741C8.21992 6.38873 8.54919 6.35464 8.84812 6.22943C9.14705 6.10422 9.40232 5.89347 9.58186 5.62365C9.7614 5.35383 9.85721 5.03698 9.85726 4.71288C9.85256 4.27358 9.67415 3.854 9.36101 3.54585C9.04787 3.23771 8.62547 3.06606 8.18615 3.06844ZM9.73726 7.84177C7.76594 7.49874 5.73653 7.81096 3.95948 8.73066C3.83333 8.8007 3.72888 8.90409 3.65755 9.02951C3.58622 9.15493 3.55075 9.29755 3.55503 9.44177V11.024C3.55503 11.1419 3.60186 11.2549 3.68521 11.3383C3.76856 11.4216 3.8816 11.4684 3.99948 11.4684C4.11735 11.4684 4.2304 11.4216 4.31375 11.3383C4.3971 11.2549 4.44392 11.1419 4.44392 11.024V9.49955C6.09178 8.67272 7.9657 8.41037 9.77726 8.75288L9.73726 7.84177Z" fill="#D9D9D9"/>
<path d="M14.6649 9.7741H11.6872V9.11632C11.6872 8.99845 11.6403 8.8854 11.557 8.80205C11.4736 8.7187 11.3606 8.67188 11.2427 8.67188C11.1248 8.67188 11.0118 8.7187 10.9284 8.80205C10.8451 8.8854 10.7983 8.99845 10.7983 9.11632V9.7741H7.55382C7.43595 9.7741 7.3229 9.82092 7.23955 9.90427C7.1562 9.98762 7.10938 10.1007 7.10938 10.2185V14.663C7.10938 14.7809 7.1562 14.8939 7.23955 14.9773C7.3229 15.0606 7.43595 15.1074 7.55382 15.1074H14.6649C14.7828 15.1074 14.8959 15.0606 14.9792 14.9773C15.0626 14.8939 15.1094 14.7809 15.1094 14.663V10.2185C15.1094 10.1007 15.0626 9.98762 14.9792 9.90427C14.8959 9.82092 14.7828 9.7741 14.6649 9.7741ZM14.2205 14.2185H7.99826V10.663H10.7983V10.8452C10.7983 10.9631 10.8451 11.0761 10.9284 11.1595C11.0118 11.2428 11.1248 11.2897 11.2427 11.2897C11.3606 11.2897 11.4736 11.2428 11.557 11.1595C11.6403 11.0761 11.6872 10.9631 11.6872 10.8452V10.663H14.2205V14.2185Z" fill="#D9D9D9"/>
<path d="M9.69507 12.1859H12.344V12.8081H9.69507V12.1859ZM4.81951 5.43918C3.58904 5.45977 2.37991 5.76395 1.28618 6.32807C1.16723 6.3909 1.06759 6.48488 0.99792 6.59996C0.928248 6.71503 0.891161 6.84688 0.890625 6.98141V8.35918C0.890625 8.47706 0.93745 8.59011 1.0208 8.67345C1.10415 8.7568 1.2172 8.80363 1.33507 8.80363C1.45294 8.80363 1.56599 8.7568 1.64934 8.67345C1.73269 8.59011 1.77951 8.47706 1.77951 8.35918V7.0703C2.82454 6.55013 3.98154 6.29522 5.1484 6.32807C4.99585 6.04947 4.88504 5.74998 4.81951 5.43918ZM14.7173 6.32363C13.7363 5.80906 12.6583 5.50622 11.5528 5.43474C11.4875 5.74496 11.3783 6.04427 11.2284 6.32363C12.2697 6.3487 13.2927 6.60367 14.224 7.0703V8.35918C14.224 8.47706 14.2708 8.59011 14.3541 8.67345C14.4375 8.7568 14.5505 8.80363 14.6684 8.80363C14.7863 8.80363 14.8993 8.7568 14.9827 8.67345C15.066 8.59011 15.1128 8.47706 15.1128 8.35918V6.98141C15.1131 6.84613 15.0764 6.71335 15.0067 6.59742C14.937 6.48149 14.8369 6.38681 14.7173 6.32363ZM4.73951 4.71474V4.41696C4.39134 4.37037 4.07456 4.19129 3.8551 3.917C3.63564 3.64272 3.53043 3.29436 3.56135 2.94445C3.59228 2.59454 3.75696 2.27004 4.02112 2.0385C4.28528 1.80696 4.62857 1.68621 4.97951 1.70141C5.34454 1.70075 5.6954 1.84268 5.95729 2.09696C6.18846 1.90652 6.44223 1.74531 6.71285 1.61696C6.41045 1.26925 6.00979 1.02133 5.56368 0.905882C5.11757 0.790429 4.64695 0.812862 4.21384 0.970224C3.78074 1.12759 3.40548 1.41249 3.13753 1.78739C2.86958 2.16228 2.72151 2.60957 2.71285 3.0703C2.72217 3.63419 2.94138 4.17435 3.32765 4.58527C3.71392 4.9962 4.2395 5.24836 4.80174 5.29252C4.76399 5.10214 4.74317 4.90879 4.73951 4.71474ZM11.0106 0.812518C10.7052 0.812585 10.4029 0.873543 10.1213 0.991827C9.83967 1.11011 9.58448 1.28335 9.37063 1.50141C9.6708 1.61094 9.95484 1.76043 10.2151 1.94585C10.4226 1.80182 10.6652 1.7168 10.9173 1.69985C11.1693 1.68291 11.4212 1.73468 11.6461 1.84964C11.871 1.9646 12.0604 2.13844 12.1943 2.35263C12.3282 2.56681 12.4014 2.81332 12.4062 3.06585C12.4034 3.32525 12.3272 3.57854 12.1864 3.79642C12.0456 4.0143 11.846 4.18784 11.6106 4.29696C11.6287 4.43399 11.6376 4.57208 11.6373 4.7103C11.6359 4.88894 11.621 5.06722 11.5928 5.24363C12.077 5.11915 12.5065 4.83811 12.8143 4.44423C13.1222 4.05036 13.2912 3.56575 13.2951 3.06585C13.2892 2.46465 13.0457 1.89021 12.6176 1.468C12.1896 1.04579 11.6118 0.810141 11.0106 0.812518Z" fill="#D9D9D9"/>
</g>
<defs>
<clipPath id="clip0_5618_11820">
<rect width="16" height="16" fill="white"/>
</clipPath>
</defs>
</svg>
